<?xml version="1.0" standalone="no"?><!DOCTYPE svg PUBLIC "-//W3C//DTD SVG 1.1//EN" "http://www.w3.org/Graphics/SVG/1.1/DTD/svg11.dtd"><svg t="1503643484839" class="icon" style="" viewBox="0 0 1024 1024" version="1.1" xmlns="http://www.w3.org/2000/svg" p-id="5643" xmlns:xlink="http://www.w3.org/1999/xlink" width="16" height="16"><defs><style type="text/css"></style></defs><path d="M925.02016 211.86048c0-26.87488-11.20256-51.7376-28.66688-69.43232h-0.45568c-17.6896-17.92-42.09664-29.11232-68.97152-29.11232H202.9824c-26.87488 0-51.73248 11.19232-69.4272 29.11232a97.65888 97.65888 0 0 0-28.88704 69.43232v110.40768c0 25.53344 9.856 49.0496 25.97888 66.9696a96.48128 96.48128 0 0 0-25.97888 66.06336v110.85312c0 25.53344 9.856 49.26976 25.97888 66.51904a97.9968 97.9968 0 0 0-25.97888 66.51392v110.85824c0 26.87488 10.97216 51.73248 28.88704 69.20704v0.21504c17.69472 17.47456 42.55232 28.66688 69.4272 28.66688H826.9312c26.87488 0 51.28192-11.19232 68.97152-28.66688l0.45568-0.21504c17.4592-17.47456 28.66688-42.33216 28.66688-69.20704V699.1872c0-25.53344-10.08128-49.05472-26.4192-66.51392a97.00352 97.00352 0 0 0 26.4192-66.51904V455.30112c0-25.53344-10.08128-48.82432-26.4192-66.06336 16.33792-17.92 26.4192-41.43616 26.4192-66.9696V211.86048zM311.3728 794.81856a56.71424 56.71424 0 0 1-40.08448 16.5632 56.75008 56.75008 0 0 1-40.09472-16.5632 56.37632 56.37632 0 0 1-16.57344-40.08448c0-15.232 6.272-29.78816 16.57344-40.31488 10.30144-10.30656 24.63744-16.7936 40.09472-16.7936 15.45216 0 29.78304 6.49216 40.08448 16.7936 10.30144 10.52672 17.01888 25.08288 17.01888 40.31488 0.00512 15.67232-6.71232 29.77792-17.01888 40.08448z m0-243.8912v0.45568c-10.30144 10.29632-24.63744 16.33792-40.08448 16.33792-15.45728 0-29.78816-6.04672-40.09472-16.33792v-0.45568a56.35072 56.35072 0 0 1-16.57344-40.08448c0-15.8976 6.272-29.78816 16.57344-40.08448 10.30144-10.53184 24.63744-16.57856 40.09472-16.57856 15.45216 0 29.78304 6.04672 40.08448 16.57856 10.30144 10.29632 17.01888 24.18688 17.01888 40.08448 0.00512 15.6672-6.71232 29.78816-17.01888 40.08448z m0-244.11136v0.44032c-10.30144 10.08128-24.63744 16.57856-40.08448 16.57856-15.45728 0-29.78816-6.49728-40.09472-16.57856v-0.44032c-10.30144-10.30656-16.57344-24.18688-16.57344-39.64416 0-15.67744 6.272-30.2336 16.57344-40.54016 10.30144-9.85088 24.63744-16.56832 40.09472-16.56832 15.45216 0 29.78304 6.71744 40.08448 16.56832 10.30144 10.30656 17.01888 24.86272 17.01888 40.54016 0.00512 15.45728-6.71232 29.3376-17.01888 39.64416z m538.39872 506.81344H400.29184v-113.9968h449.47968v113.9968z m0-245.90848H400.29184V453.7344h449.47968v113.98656z m0-243.6608H400.29184V210.06848h449.47968v113.99168z" p-id="5644" fill="#ffffff"></path></svg>